HIERARCHY
ROOT Hips
{
 OFFSET 0.000000 0.000000 0.000000
 CHANNELS 6 Xposition Yposition Zposition Yrotation Xrotation Zrotation
 JOINT Chest
 {
  OFFSET 0.000000 9.588913 -0.003946
  CHANNELS 3 Yrotation Xrotation Zrotation
  JOINT Chest2
  {
   OFFSET 0.000000 9.541882 0.008053
   CHANNELS 3 Yrotation Xrotation Zrotation
   JOINT Chest3
   {
    OFFSET 0.000000 9.501360 0.000000
    CHANNELS 3 Yrotation Xrotation Zrotation
    JOINT Chest4
    {
     OFFSET 0.000000 9.491660 0.000000
     CHANNELS 3 Yrotation Xrotation Zrotation
     JOINT Neck
     {
      OFFSET 0.000000 14.331917 0.000000
      CHANNELS 3 Yrotation Xrotation Zrotation
      JOINT Head
      {
       OFFSET 0.000000 8.884799 0.017034
       CHANNELS 3 Yrotation Xrotation Zrotation
       End Site
       {
        OFFSET 0.000000 16.896195 0.008993
       }
      }
     }
     JOINT RightCollar
     {
      OFFSET -2.923010 9.499495 0.000000
      CHANNELS 3 Yrotation Xrotation Zrotation
      JOINT RightShoulder
      {
       OFFSET -13.795216 0.000000 0.000000
       CHANNELS 3 Yrotation Xrotation Zrotation
       JOINT RightElbow
       {
        OFFSET -30.272209 0.000000 0.000000
        CHANNELS 3 Yrotation Xrotation Zrotation
        JOINT RightWrist
        {
         OFFSET -24.478199 0.000000 0.000000
         CHANNELS 3 Yrotation Xrotation Zrotation
         End Site
         {
          OFFSET -18.090752 0.000000 0.000000
         }
        }
       }
      }
     }
     JOINT LeftCollar
     {
      OFFSET 2.923010 9.499495 0.000000
      CHANNELS 3 Yrotation Xrotation Zrotation
      JOINT LeftShoulder
      {
       OFFSET 13.795216 0.000000 0.000000
       CHANNELS 3 Yrotation Xrotation Zrotation
       JOINT LeftElbow
       {
        OFFSET 30.272209 0.000000 0.000000
        CHANNELS 3 Yrotation Xrotation Zrotation
        JOINT LeftWrist
        {
         OFFSET 24.478199 0.000000 0.000000
         CHANNELS 3 Yrotation Xrotation Zrotation
         End Site
         {
          OFFSET 18.090752 0.000000 0.000000
         }
        }
       }
      }
     }
    }
   }
  }
 }
 JOINT RightHip
 {
  OFFSET -7.826875 0.019532 0.001973
  CHANNELS 3 Yrotation Xrotation Zrotation
  JOINT RightKnee
  {
   OFFSET 0.000000 -40.546152 -0.001885
   CHANNELS 3 Yrotation Xrotation Zrotation
   JOINT RightAnkle
   {
    OFFSET 0.000000 -39.417092 -0.003189
    CHANNELS 3 Yrotation Xrotation Zrotation
    JOINT RightToe
    {
     OFFSET 0.000000 -7.579396 17.243563
     CHANNELS 3 Yrotation Xrotation Zrotation
     End Site
     {
      OFFSET 0.000000 -1.500329 6.694466
     }
    }
   }
  }
 }
 JOINT LeftHip
 {
  OFFSET 7.826875 0.019532 0.001973
  CHANNELS 3 Yrotation Xrotation Zrotation
  JOINT LeftKnee
  {
   OFFSET 0.000000 -40.546152 -0.001885
   CHANNELS 3 Yrotation Xrotation Zrotation
   JOINT LeftAnkle
   {
    OFFSET 0.000000 -39.417092 -0.003189
    CHANNELS 3 Yrotation Xrotation Zrotation
    JOINT LeftToe
    {
     OFFSET 0.000000 -7.579396 17.243563
     CHANNELS 3 Yrotation Xrotation Zrotation
     End Site
     {
      OFFSET 0.000000 -1.500329 6.694466
     }
    }
   }
  }
 }
}
MOTION
Frames: 7
Frame Time: 0.008333
0.000000 87.345680 0.000000 0.000000 -5.767889 0.000000 0.000000 11.653876 0.000000 0.000000 -5.885988 0.000000 0.000000 -0.000000 0.000000 0.000000 -0.000000 0.000000 0.000000 12.528808 0.000000 0.000000 0.711711 0.000000 0.000000 -0.000000 0.000000 0.000000 -0.000000 0.000000 2.309063 -0.000000 0.000000 -2.309063 -0.000000 -0.000000 0.000000 -0.000000 0.000000 0.000000 0.000000 0.000000 -2.309063 0.000000 0.000000 2.309063 -0.000000 0.000000 0.000000 8.520374 0.000000 0.000000 1.905768 0.000000 -0.000000 -4.658254 0.000000 0.000000 -0.000000 0.000000 0.000000 8.520374 0.000000 0.000000 1.905768 0.000000 -0.000000 -4.658254 0.000000 0.000000 -0.000000 0.000000
-9.025059 88.831934 22.623277 -53.435985 -9.626377 1.789075 4.686308 5.622069 0.427784 2.797940 3.101847 0.163716 3.500094 3.875769 0.228423 2.797940 3.101847 0.163716 -3.993419 14.767473 0.560054 -4.354422 -10.158206 1.505972 -9.736518 0.501888 -5.460573 1.494951 -3.339008 92.081758 6.116060 -2.871721 0.467685 2.367648 -2.625308 -2.761858 -10.495883 -0.852285 0.856776 6.266628 0.148539 -89.517722 4.324865 -4.938128 3.263537 -2.692174 -2.890092 8.082681 2.231780 6.687190 -7.474894 1.435324 26.951502 4.196412 0.904728 -14.987340 10.363548 0.328172 -5.384467 -7.154881 8.021828 7.026609 1.093576 7.133033 6.221439 0.019284 2.225600 -5.019358 0.759357 0.009290 0.155201 -0.020595
-9.077529 88.842279 22.680410 -53.365830 -9.781200 1.814149 4.649368 5.692412 0.396122 2.781911 3.129833 0.148275 3.479955 3.910876 0.209196 2.781911 3.129833 0.148276 -4.019694 14.750263 0.549782 -4.380613 -10.175520 1.501359 -9.727981 0.525475 -5.418110 1.526479 -3.408557 92.104957 6.188130 -2.884545 0.459567 2.403715 -2.645487 -2.783260 -10.494489 -0.900149 0.850463 6.144276 0.218851 -89.364558 4.445666 -4.852856 3.343604 -2.602290 -2.841014 8.034069 2.525603 6.141877 -7.662768 1.575130 28.307922 4.530253 0.790001 -14.969376 10.884325 0.370001 -5.858823 -7.906276 7.819741 7.229340 1.069785 7.234758 6.222775 -0.002474 2.232192 -5.026112 0.770699 0.005652 0.128194 -0.020688
-9.140146 88.856135 22.742600 -53.273055 -9.968997 1.829922 4.595926 5.786827 0.375487 2.765896 3.160557 0.133969 3.459842 3.949397 0.191405 2.765895 3.160557 0.133969 -4.049146 14.737904 0.536174 -4.409487 -10.187660 1.493955 -9.724945 0.546075 -5.371060 1.558986 -3.489715 92.133895 6.230223 -2.900465 0.451851 2.431455 -2.659715 -2.805040 -10.497841 -0.944448 0.842610 6.020089 0.272248 -89.206786 4.544626 -4.761187 3.399149 -2.520197 -2.789486 7.987013 2.829180 5.651702 -7.838655 1.691572 29.596730 4.866821 0.634414 -14.953852 11.380001 0.432865 -6.202018 -8.566795 7.622158 7.471470 1.053294 7.331885 6.217752 -0.012641 2.226137 -5.043569 0.779101 0.002148 0.108759 -0.023926
-9.206992 88.872410 22.801398 -53.178744 -10.144073 1.826007 4.553737 5.861945 0.374431 2.747854 3.192405 0.121637 3.437211 3.989306 0.176071 2.747853 3.192405 0.121637 -4.082172 14.731896 0.519353 -4.441508 -10.193028 1.483983 -9.724115 0.564863 -5.321869 1.589814 -3.579695 92.170724 6.245188 -2.919233 0.445915 2.451227 -2.665306 -2.823155 -10.501408 -0.981433 0.834948 5.901810 0.309026 -89.051147 4.618821 -4.661093 3.434284 -2.445464 -2.733719 7.938057 3.130433 5.170782 -7.991584 1.789335 30.812376 5.189701 0.475680 -14.931686 11.842130 0.486417 -6.424380 -9.140333 7.451253 7.702496 1.056509 7.414926 6.199594 -0.016810 2.217659 -5.032544 0.781552 -0.002266 0.069844 -0.026664
-9.277844 88.891589 22.858291 -53.062608 -10.321723 1.809644 4.505166 5.935787 0.382809 2.726316 3.224017 0.112017 3.410232 4.028901 0.164093 2.726315 3.224016 0.112017 -4.115339 14.733174 0.499421 -4.472951 -10.190758 1.470726 -9.726648 0.584373 -5.271619 1.619546 -3.676049 92.215914 6.238951 -2.933990 0.440495 2.461669 -2.668706 -2.834570 -10.504449 -1.009915 0.825070 5.794375 0.331318 -88.899643 4.666880 -4.553569 3.455158 -2.380280 -2.679367 7.887149 3.369318 4.722023 -8.133675 1.873002 31.928751 5.479409 0.313345 -14.925484 12.230341 0.520991 -6.465315 -9.584702 7.285954 7.936541 1.072595 7.474026 6.173534 -0.019131 2.213814 -5.010246 0.774808 -0.008171 0.026388 -0.025157
-9.350370 88.913079 22.912155 -52.931381 -10.490476 1.785396 4.456321 5.998664 0.395799 2.701067 3.254146 0.105368 3.378633 4.066622 0.155781 2.701066 3.254145 0.105368 -4.145567 14.742806 0.476343 -4.500440 -10.179833 1.453409 -9.729037 0.607772 -5.220277 1.648392 -3.775113 92.266627 6.217338 -2.939021 0.435513 2.461842 -2.674593 -2.838575 -10.505608 -1.030623 0.811666 5.699401 0.340433 -88.754819 4.690402 -4.444421 3.463242 -2.326964 -2.633503 7.845058 3.524101 4.305473 -8.270675 1.919350 32.915736 5.701581 0.185262 -14.945973 12.494924 0.502445 -6.265186 -9.848658 7.135624 8.159802 1.096957 7.511050 6.143645 -0.018093 2.209925 -4.977096 0.757129 -0.014912 -0.021570 -0.019148
